<?xml version="1.0" encoding="UTF-8"?>
<svg id="Camada_2" data-name="Camada 2" xmlns="http://www.w3.org/2000/svg" width="167.703" height="168.039" viewBox="0 0 167.703 168.039">
  <defs>
    <style>
      .cls-1 {
        fill: #fff;
      }
    </style>
  </defs>
  <g id="Camada_1-2" data-name="Camada 1">
    <path class="cls-1" d="m0,132.111V15.024c0-.968,1.166-1.457,1.856-.778l33.588,33.014c.209.205.326.486.326.778v70.945c0,.285.111.558.31.762l45.314,46.44c.675.691.185,1.854-.781,1.854h-43.485c-.283,0-.555-.11-.759-.307L.333,132.896c-.213-.206-.333-.489-.333-.785Z"/>
    <path class="cls-1" d="m167.703,35.928v117.087c0,.968-1.166,1.457-1.856.778l-33.588-33.014c-.209-.205-.326-.486-.326-.778V49.056c0-.285-.111-.558-.31-.762L86.308,1.854C85.633,1.162,86.123,0,87.089,0h43.485c.283,0,.555.11.759.307l36.038,34.837c.213.206.333.489.333.785Z"/>
    <path class="cls-1" d="m15.31,3.994l96.875,96.783c1.474,1.473,3.993.429,3.993-1.655v-42.33c0-.605-.235-1.187-.655-1.623L63.06.716c-.441-.458-1.049-.716-1.685-.716H16.964c-2.085,0-3.128,2.521-1.653,3.994Z"/>
    <path class="cls-1" d="m151.831,164.044L54.956,67.262c-1.474-1.473-3.993-.429-3.993,1.655v42.33c0,.605.235,1.187.655,1.623l52.464,54.453c.441.458,1.049.716,1.685.716h44.411c2.085,0,3.128-2.521,1.653-3.994Z"/>
  </g>
</svg>